<?xml version="1.0" encoding="UTF-8"?>
<!DOCTYPE svg PUBLIC "-//W3C//DTD SVG 1.1//EN" "http://www.w3.org/Graphics/SVG/1.1/DTD/svg11.dtd">
<!-- Creator: CorelDRAW X8 -->
<svg xmlns="http://www.w3.org/2000/svg" xml:space="preserve" width="28.9945mm" height="24.177mm" version="1.1" style="shape-rendering:geometricPrecision; text-rendering:geometricPrecision; image-rendering:optimizeQuality; fill-rule:evenodd; clip-rule:evenodd"
viewBox="0 0 615 513"
 xmlns:xlink="http://www.w3.org/1999/xlink">
 <defs>
  <style type="text/css">
   <![CDATA[
    .fil1 {fill:#016241}
    .fil0 {fill:#B28721}
    .fil2 {fill:#016241;fill-rule:nonzero}
   ]]>
  </style>
 </defs>
 <g id="Слой_x0020_1">
  <metadata id="CorelCorpID_0Corel-Layer"/>
  <g id="_2391498199872">
   <g>
    <path class="fil0" d="M310 48l-69 70 -98 0 0 70c88,27 137,71 167,123 31,-52 80,-96 168,-123l0 -70 -98 0 -70 -70zm0 75c7,0 13,1 19,4 -3,-1 -5,-1 -8,-1 -24,0 -44,20 -44,44 0,24 20,43 44,43 20,0 37,-13 42,-31 -3,27 -25,47 -53,47 -29,0 -53,-23 -53,-53 0,-29 24,-53 53,-53zm12 25l5 15 16 0 -13 10 5 15 -13 -9 -14 9 6 -15 -14 -10 17 0 5 -15zm-12 179c-48,-69 -132,-103 -213,-113l12 -12 0 -118 118 0 83 -84 84 84 118 0 0 118 12 12c-82,10 -165,44 -214,113z"/>
    <path class="fil1" d="M310 376l14 0c7,0 13,-6 13,-14l0 -14c70,-63 132,-77 191,-83l20 20 -36 84 84 -84 -55 -55c-86,9 -194,51 -231,131 -37,-80 -144,-122 -230,-131l-55 55 84 84 -36 -84 20 -20c58,6 121,20 191,83l0 14c0,8 6,14 13,14l13 0z"/>
   </g>
   <path class="fil2" d="M55 422l7 0 0 -8 -13 0 -33 61 0 -61 -16 0 0 8 7 0 0 67 -7 0 0 8 13 0 33 -61 0 61 16 0 0 -8 -7 0 0 -67zm57 67l-29 0 0 -67 29 0 0 13 8 0 0 -21 -35 0c-8,0 -11,6 -11,12l0 59c0,6 3,12 12,12l34 0 0 -21 -8 0 0 13zm71 0l0 -75 -32 0 0 8 9 0 -24 67 -10 0 0 8 7 0c7,0 11,-5 12,-11l23 -64 6 0 0 67 -6 0 0 8 22 0 0 -8 -7 0zm36 -29l10 -38 9 38 -19 0zm35 29l-19 -75 -13 0 -19 75 -7 0 0 8 22 0 0 -8 -6 0 5 -22 23 0 6 22 -6 0 0 8 21 0 0 -8 -7 0zm24 -67l0 67 -7 0 0 8 23 0 0 -8 -7 0 0 -57 21 43 7 0 20 -42 0 56 -7 0 0 8 23 0 0 -8 -7 0 0 -67 7 0 0 -8 -17 0 -23 48 -23 -48 -17 0 0 8 7 0zm132 67l-10 0 0 24 9 0 0 -16 48 0 0 16 9 0 0 -24 -9 0 0 -75 -32 0 0 8 9 0 -24 67zm38 0l-29 0 23 -67 6 0 0 67zm46 -67l7 0 0 -8 -23 0 0 8 7 0 0 67 -7 0 0 8 23 0 0 -8 -7 0 0 -67zm84 0l0 -8 -23 0 0 8 7 0 0 28 -31 0 0 -28 7 0 0 -8 -22 0 0 8 6 0 0 67 -6 0 0 8 22 0 0 -8 -7 0 0 -31 31 0 0 31 -7 0 0 8 23 0 0 -8 -7 0 0 -67 7 0zm30 0l7 0 0 -8 -23 0 0 8 7 0 0 67 -7 0 0 8 23 0 0 -8 -7 0 0 -67z"/>
  </g>
 </g>
</svg>
